<svg xmlns="http://www.w3.org/2000/svg" xmlns:xlink="http://www.w3.org/1999/xlink" width="500" zoomAndPan="magnify" viewBox="0 0 375 374.999991" height="500" preserveAspectRatio="xMidYMid meet" version="1.0"><defs><g/><clipPath id="1561f67766"><path d="M 37.5 156.726562 L 344.148438 156.726562 L 344.148438 233.199219 L 37.5 233.199219 Z M 37.5 156.726562 " clip-rule="nonzero"/></clipPath><clipPath id="36c0100ca6"><path d="M 37.515625 156.726562 L 344.128906 156.726562 L 344.128906 233.191406 L 37.515625 233.191406 Z M 37.515625 156.726562 " clip-rule="nonzero"/></clipPath></defs><g clip-path="url(#1561f67766)"><path fill="#ff214a" d="M 37.5 156.726562 L 344.292969 156.726562 L 344.292969 233.199219 L 37.5 233.199219 Z M 37.5 156.726562 " fill-opacity="1" fill-rule="nonzero"/></g><g clip-path="url(#36c0100ca6)"><path stroke-linecap="butt" transform="matrix(0.75, 0, 0, 0.75, 37.517346, 156.726758)" fill="none" stroke-linejoin="miter" d="M -0.0022945 -0.000260278 L 408.815441 -0.000260278 L 408.815441 101.952871 L -0.0022945 101.952871 Z M -0.0022945 -0.000260278 " stroke="#ffffff" stroke-width="8" stroke-opacity="1" stroke-miterlimit="4"/></g><g fill="#ffffff" fill-opacity="1"><g transform="translate(52.935642, 210.383643)"><g><path d="M 17.28125 -33.34375 C 21.476562 -33.34375 24.925781 -32.488281 27.625 -30.78125 C 30.320312 -29.082031 31.703125 -26.566406 31.765625 -23.234375 L 31.765625 -22.671875 L 21.90625 -22.671875 L 21.90625 -22.859375 C 21.90625 -23.804688 21.554688 -24.597656 20.859375 -25.234375 C 20.160156 -25.867188 19.097656 -26.1875 17.671875 -26.1875 C 16.273438 -26.1875 15.203125 -25.976562 14.453125 -25.5625 C 13.703125 -25.15625 13.328125 -24.648438 13.328125 -24.046875 C 13.328125 -23.191406 13.835938 -22.554688 14.859375 -22.140625 C 15.878906 -21.734375 17.515625 -21.304688 19.765625 -20.859375 C 22.398438 -20.316406 24.566406 -19.75 26.265625 -19.15625 C 27.960938 -18.570312 29.445312 -17.613281 30.71875 -16.28125 C 31.988281 -14.945312 32.640625 -13.140625 32.671875 -10.859375 C 32.671875 -6.984375 31.359375 -4.109375 28.734375 -2.234375 C 26.117188 -0.359375 22.617188 0.578125 18.234375 0.578125 C 13.128906 0.578125 9.15625 -0.28125 6.3125 -2 C 3.46875 -3.71875 2.046875 -6.75 2.046875 -11.09375 L 12 -11.09375 C 12 -9.445312 12.425781 -8.34375 13.28125 -7.78125 C 14.144531 -7.226562 15.476562 -6.953125 17.28125 -6.953125 C 18.613281 -6.953125 19.71875 -7.09375 20.59375 -7.375 C 21.46875 -7.664062 21.90625 -8.253906 21.90625 -9.140625 C 21.90625 -9.929688 21.421875 -10.523438 20.453125 -10.921875 C 19.484375 -11.328125 17.90625 -11.75 15.71875 -12.1875 C 13.050781 -12.757812 10.84375 -13.351562 9.09375 -13.96875 C 7.351562 -14.59375 5.832031 -15.617188 4.53125 -17.046875 C 3.226562 -18.472656 2.578125 -20.410156 2.578125 -22.859375 C 2.578125 -26.441406 3.960938 -29.082031 6.734375 -30.78125 C 9.515625 -32.488281 13.03125 -33.34375 17.28125 -33.34375 Z M 17.28125 -33.34375 "/></g></g></g><g fill="#ffffff" fill-opacity="1"><g transform="translate(84.606206, 210.383643)"><g><path d="M 3.1875 -28.09375 L 3.1875 -34.53125 L 12.671875 -34.53125 L 12.671875 -28.09375 Z M 3.1875 0 L 3.1875 -25.140625 L 12.671875 -25.140625 L 12.671875 0 Z M 3.1875 0 "/></g></g></g><g fill="#ffffff" fill-opacity="1"><g transform="translate(97.750663, 210.383643)"><g><path d="M 20.1875 -25.71875 C 23.113281 -25.71875 25.304688 -24.90625 26.765625 -23.28125 C 28.222656 -21.664062 28.953125 -19.332031 28.953125 -16.28125 L 28.953125 0 L 19.484375 0 L 19.484375 -15.140625 C 19.484375 -16.222656 19.203125 -17.085938 18.640625 -17.734375 C 18.085938 -18.390625 17.300781 -18.71875 16.28125 -18.71875 C 15.113281 -18.71875 14.160156 -18.335938 13.421875 -17.578125 C 12.691406 -16.816406 12.328125 -15.878906 12.328125 -14.765625 L 12.328125 0 L 2.859375 0 L 2.859375 -25.140625 L 10.625 -25.140625 L 11.234375 -21.34375 C 12.222656 -22.675781 13.519531 -23.738281 15.125 -24.53125 C 16.726562 -25.320312 18.414062 -25.71875 20.1875 -25.71875 Z M 20.1875 -25.71875 "/></g></g></g><g fill="#ffffff" fill-opacity="1"><g transform="translate(126.801849, 210.383643)"><g><path d="M 31.140625 -29.859375 C 31.140625 -27.921875 30.65625 -26.425781 29.6875 -25.375 C 28.71875 -24.332031 27.269531 -23.554688 25.34375 -23.046875 C 26.257812 -22.347656 26.976562 -21.53125 27.5 -20.59375 C 28.03125 -19.65625 28.296875 -18.664062 28.296875 -17.625 C 28.296875 -14.957031 27.285156 -12.941406 25.265625 -11.578125 C 23.242188 -10.210938 20.726562 -9.53125 17.71875 -9.53125 L 14.09375 -9.53125 C 12.09375 -9.53125 11.09375 -9.066406 11.09375 -8.140625 C 11.09375 -7.703125 11.316406 -7.347656 11.765625 -7.078125 C 12.210938 -6.804688 12.988281 -6.671875 14.09375 -6.671875 L 22.671875 -6.671875 C 25.460938 -6.671875 27.570312 -5.9375 29 -4.46875 C 30.425781 -3.007812 31.140625 -1.0625 31.140625 1.375 C 31.140625 3.1875 30.664062 4.742188 29.71875 6.046875 C 28.769531 7.347656 27.484375 8.332031 25.859375 9 C 24.242188 9.664062 22.484375 10 20.578125 10 L 6.578125 10 C 5.429688 10 4.375 9.726562 3.40625 9.1875 C 2.4375 8.644531 1.664062 7.90625 1.09375 6.96875 C 0.519531 6.039062 0.234375 5.003906 0.234375 3.859375 C 0.234375 2.617188 0.613281 1.5 1.375 0.5 C 2.144531 -0.5 3.097656 -1.253906 4.234375 -1.765625 C 3.472656 -2.304688 2.867188 -2.957031 2.421875 -3.71875 C 1.984375 -4.476562 1.765625 -5.300781 1.765625 -6.1875 C 1.765625 -7.425781 2.222656 -8.546875 3.140625 -9.546875 C 4.066406 -10.546875 5.210938 -11.222656 6.578125 -11.578125 C 5.335938 -12.367188 4.351562 -13.28125 3.625 -14.3125 C 2.894531 -15.34375 2.53125 -16.429688 2.53125 -17.578125 C 2.53125 -20.492188 3.710938 -22.578125 6.078125 -23.828125 C 8.441406 -25.085938 11.578125 -25.71875 15.484375 -25.71875 C 17.191406 -25.71875 18.570312 -25.625 19.625 -25.4375 C 21.175781 -26.414062 22.179688 -27.3125 22.640625 -28.125 C 23.109375 -28.9375 23.34375 -29.515625 23.34375 -29.859375 Z M 15.390625 -20.765625 C 14.335938 -20.765625 13.476562 -20.492188 12.8125 -19.953125 C 12.144531 -19.410156 11.8125 -18.632812 11.8125 -17.625 C 11.8125 -16.570312 12.117188 -15.785156 12.734375 -15.265625 C 13.359375 -14.742188 14.242188 -14.484375 15.390625 -14.484375 C 16.523438 -14.484375 17.414062 -14.742188 18.0625 -15.265625 C 18.71875 -15.785156 19.046875 -16.570312 19.046875 -17.625 C 19.046875 -18.664062 18.71875 -19.445312 18.0625 -19.96875 C 17.414062 -20.5 16.523438 -20.765625 15.390625 -20.765625 Z M 11.71875 0 C 10.988281 0 10.390625 0.195312 9.921875 0.59375 C 9.460938 0.988281 9.234375 1.550781 9.234375 2.28125 C 9.234375 3.007812 9.472656 3.597656 9.953125 4.046875 C 10.429688 4.492188 11.019531 4.71875 11.71875 4.71875 L 19.140625 4.71875 C 19.835938 4.71875 20.429688 4.5 20.921875 4.0625 C 21.421875 3.632812 21.671875 3.054688 21.671875 2.328125 C 21.671875 1.597656 21.429688 1.023438 20.953125 0.609375 C 20.472656 0.203125 19.867188 0 19.140625 0 Z M 11.71875 0 "/></g></g></g><g fill="#ffffff" fill-opacity="1"><g transform="translate(155.853028, 210.383643)"><g><path d="M 17.28125 -33.34375 C 21.476562 -33.34375 24.925781 -32.488281 27.625 -30.78125 C 30.320312 -29.082031 31.703125 -26.566406 31.765625 -23.234375 L 31.765625 -22.671875 L 21.90625 -22.671875 L 21.90625 -22.859375 C 21.90625 -23.804688 21.554688 -24.597656 20.859375 -25.234375 C 20.160156 -25.867188 19.097656 -26.1875 17.671875 -26.1875 C 16.273438 -26.1875 15.203125 -25.976562 14.453125 -25.5625 C 13.703125 -25.15625 13.328125 -24.648438 13.328125 -24.046875 C 13.328125 -23.191406 13.835938 -22.554688 14.859375 -22.140625 C 15.878906 -21.734375 17.515625 -21.304688 19.765625 -20.859375 C 22.398438 -20.316406 24.566406 -19.75 26.265625 -19.15625 C 27.960938 -18.570312 29.445312 -17.613281 30.71875 -16.28125 C 31.988281 -14.945312 32.640625 -13.140625 32.671875 -10.859375 C 32.671875 -6.984375 31.359375 -4.109375 28.734375 -2.234375 C 26.117188 -0.359375 22.617188 0.578125 18.234375 0.578125 C 13.128906 0.578125 9.15625 -0.28125 6.3125 -2 C 3.46875 -3.71875 2.046875 -6.75 2.046875 -11.09375 L 12 -11.09375 C 12 -9.445312 12.425781 -8.34375 13.28125 -7.78125 C 14.144531 -7.226562 15.476562 -6.953125 17.28125 -6.953125 C 18.613281 -6.953125 19.71875 -7.09375 20.59375 -7.375 C 21.46875 -7.664062 21.90625 -8.253906 21.90625 -9.140625 C 21.90625 -9.929688 21.421875 -10.523438 20.453125 -10.921875 C 19.484375 -11.328125 17.90625 -11.75 15.71875 -12.1875 C 13.050781 -12.757812 10.84375 -13.351562 9.09375 -13.96875 C 7.351562 -14.59375 5.832031 -15.617188 4.53125 -17.046875 C 3.226562 -18.472656 2.578125 -20.410156 2.578125 -22.859375 C 2.578125 -26.441406 3.960938 -29.082031 6.734375 -30.78125 C 9.515625 -32.488281 13.03125 -33.34375 17.28125 -33.34375 Z M 17.28125 -33.34375 "/></g></g></g><g fill="#ffffff" fill-opacity="1"><g transform="translate(187.523589, 210.383643)"><g><path d="M 19.625 -25.140625 L 19.625 -18.71875 L 14.28125 -18.71875 L 14.28125 -9.140625 C 14.28125 -7.992188 14.472656 -7.160156 14.859375 -6.640625 C 15.242188 -6.117188 15.941406 -5.859375 16.953125 -5.859375 L 19.625 -5.859375 L 19.625 -0.28125 C 18.863281 -0.03125 17.878906 0.171875 16.671875 0.328125 C 15.460938 0.492188 14.414062 0.578125 13.53125 0.578125 C 10.726562 0.578125 8.570312 0.0703125 7.0625 -0.9375 C 5.5625 -1.957031 4.8125 -3.691406 4.8125 -6.140625 L 4.8125 -18.71875 L 1.28125 -18.71875 L 1.28125 -25.140625 L 5.1875 -25.140625 L 7.234375 -32.765625 L 14.28125 -32.765625 L 14.28125 -25.140625 Z M 19.625 -25.140625 "/></g></g></g><g fill="#ffffff" fill-opacity="1"><g transform="translate(205.954412, 210.383643)"><g><path d="M 15.28125 -25.71875 C 19.125 -25.71875 22.253906 -25.070312 24.671875 -23.78125 C 27.085938 -22.5 28.296875 -20.414062 28.296875 -17.53125 L 28.296875 -7.71875 C 28.296875 -7.175781 28.421875 -6.726562 28.671875 -6.375 C 28.921875 -6.03125 29.300781 -5.859375 29.8125 -5.859375 L 31.53125 -5.859375 L 31.53125 -0.375 C 31.4375 -0.3125 31.1875 -0.207031 30.78125 -0.0625 C 30.382812 0.0703125 29.820312 0.210938 29.09375 0.359375 C 28.363281 0.503906 27.523438 0.578125 26.578125 0.578125 C 24.734375 0.578125 23.210938 0.300781 22.015625 -0.25 C 20.828125 -0.8125 20.015625 -1.585938 19.578125 -2.578125 C 18.367188 -1.617188 17.015625 -0.851562 15.515625 -0.28125 C 14.023438 0.289062 12.28125 0.578125 10.28125 0.578125 C 4.375 0.578125 1.421875 -1.773438 1.421875 -6.484375 C 1.421875 -8.921875 2.078125 -10.78125 3.390625 -12.0625 C 4.710938 -13.351562 6.613281 -14.238281 9.09375 -14.71875 C 11.570312 -15.195312 14.8125 -15.4375 18.8125 -15.4375 L 18.8125 -16.671875 C 18.8125 -17.648438 18.46875 -18.394531 17.78125 -18.90625 C 17.101562 -19.414062 16.222656 -19.671875 15.140625 -19.671875 C 14.160156 -19.671875 13.3125 -19.492188 12.59375 -19.140625 C 11.882812 -18.796875 11.53125 -18.242188 11.53125 -17.484375 L 11.53125 -17.28125 L 2.1875 -17.28125 C 2.15625 -17.445312 2.140625 -17.671875 2.140625 -17.953125 C 2.140625 -20.335938 3.273438 -22.226562 5.546875 -23.625 C 7.816406 -25.019531 11.0625 -25.71875 15.28125 -25.71875 Z M 18.8125 -10.953125 C 16.113281 -10.953125 14.117188 -10.65625 12.828125 -10.0625 C 11.546875 -9.476562 10.90625 -8.695312 10.90625 -7.71875 C 10.90625 -6.125 11.984375 -5.328125 14.140625 -5.328125 C 15.378906 -5.328125 16.46875 -5.660156 17.40625 -6.328125 C 18.34375 -6.992188 18.8125 -7.820312 18.8125 -8.8125 Z M 18.8125 -10.953125 "/></g></g></g><g fill="#ffffff" fill-opacity="1"><g transform="translate(235.005592, 210.383643)"><g><path d="M 18.140625 -25.765625 C 18.867188 -25.765625 19.519531 -25.675781 20.09375 -25.5 C 20.664062 -25.320312 20.953125 -25.21875 20.953125 -25.1875 L 20.953125 -17.234375 L 17.90625 -17.234375 C 15.9375 -17.234375 14.515625 -16.722656 13.640625 -15.703125 C 12.765625 -14.691406 12.328125 -13.1875 12.328125 -11.1875 L 12.328125 0 L 2.859375 0 L 2.859375 -25.140625 L 10.625 -25.140625 L 11.234375 -21.34375 C 11.804688 -22.800781 12.710938 -23.898438 13.953125 -24.640625 C 15.191406 -25.390625 16.585938 -25.765625 18.140625 -25.765625 Z M 18.140625 -25.765625 "/></g></g></g><g fill="#ffffff" fill-opacity="1"><g transform="translate(253.436414, 210.383643)"><g><path d="M 19.625 -25.140625 L 19.625 -18.71875 L 14.28125 -18.71875 L 14.28125 -9.140625 C 14.28125 -7.992188 14.472656 -7.160156 14.859375 -6.640625 C 15.242188 -6.117188 15.941406 -5.859375 16.953125 -5.859375 L 19.625 -5.859375 L 19.625 -0.28125 C 18.863281 -0.03125 17.878906 0.171875 16.671875 0.328125 C 15.460938 0.492188 14.414062 0.578125 13.53125 0.578125 C 10.726562 0.578125 8.570312 0.0703125 7.0625 -0.9375 C 5.5625 -1.957031 4.8125 -3.691406 4.8125 -6.140625 L 4.8125 -18.71875 L 1.28125 -18.71875 L 1.28125 -25.140625 L 5.1875 -25.140625 L 7.234375 -32.765625 L 14.28125 -32.765625 L 14.28125 -25.140625 Z M 19.625 -25.140625 "/></g></g></g><g fill="#ffffff" fill-opacity="1"><g transform="translate(271.867237, 210.383643)"><g><path d="M 15.859375 -25.71875 C 20.460938 -25.71875 23.976562 -24.632812 26.40625 -22.46875 C 28.832031 -20.3125 30.046875 -17.015625 30.046875 -12.578125 L 30.046875 -10.953125 L 11.1875 -10.953125 C 11.1875 -9.140625 11.59375 -7.773438 12.40625 -6.859375 C 13.21875 -5.941406 14.492188 -5.484375 16.234375 -5.484375 C 17.828125 -5.484375 18.992188 -5.816406 19.734375 -6.484375 C 20.484375 -7.148438 20.859375 -8.035156 20.859375 -9.140625 L 30.046875 -9.140625 C 30.046875 -6.097656 28.882812 -3.71875 26.5625 -2 C 24.25 -0.28125 20.875 0.578125 16.4375 0.578125 C 11.769531 0.578125 8.148438 -0.507812 5.578125 -2.6875 C 3.003906 -4.863281 1.71875 -8.160156 1.71875 -12.578125 C 1.71875 -16.890625 2.96875 -20.15625 5.46875 -22.375 C 7.976562 -24.601562 11.441406 -25.71875 15.859375 -25.71875 Z M 16.234375 -19.671875 C 13.253906 -19.671875 11.585938 -18.257812 11.234375 -15.4375 L 20.484375 -15.4375 C 20.484375 -16.738281 20.109375 -17.769531 19.359375 -18.53125 C 18.609375 -19.289062 17.566406 -19.671875 16.234375 -19.671875 Z M 16.234375 -19.671875 "/></g></g></g><g fill="#ffffff" fill-opacity="1"><g transform="translate(300.918428, 210.383643)"><g><path d="M 18.140625 -25.765625 C 18.867188 -25.765625 19.519531 -25.675781 20.09375 -25.5 C 20.664062 -25.320312 20.953125 -25.21875 20.953125 -25.1875 L 20.953125 -17.234375 L 17.90625 -17.234375 C 15.9375 -17.234375 14.515625 -16.722656 13.640625 -15.703125 C 12.765625 -14.691406 12.328125 -13.1875 12.328125 -11.1875 L 12.328125 0 L 2.859375 0 L 2.859375 -25.140625 L 10.625 -25.140625 L 11.234375 -21.34375 C 11.804688 -22.800781 12.710938 -23.898438 13.953125 -24.640625 C 15.191406 -25.390625 16.585938 -25.765625 18.140625 -25.765625 Z M 18.140625 -25.765625 "/></g></g></g><g fill="#ffffff" fill-opacity="1"><g transform="translate(194.03259, 226.366137)"><g><path d="M 5.03125 -4.117188 L 9.242188 -7.960938 L 6.761719 -7.960938 L 3.105469 -4.441406 L 3.726562 -7.960938 L 1.648438 -7.960938 L 0.242188 0 L 2.320312 0 L 2.746094 -2.445312 L 3.414062 -3.070312 L 5.15625 0 L 7.730469 0 Z M 5.03125 -4.117188 "/></g></g></g><g fill="#ffffff" fill-opacity="1"><g transform="translate(201.920328, 226.366137)"><g><path d="M 2.320312 0 L 3.726562 -7.960938 L 1.648438 -7.960938 L 0.242188 0 Z M 2.320312 0 "/></g></g></g><g fill="#ffffff" fill-opacity="1"><g transform="translate(205.091364, 226.366137)"><g><path d="M 5.375 -8.121094 C 2.894531 -8.121094 0.726562 -6.230469 0.726562 -3.125 C 0.726562 -0.96875 2.078125 0.160156 4.0625 0.160156 C 6.058594 0.160156 7.582031 -0.820312 8.109375 -2.734375 L 8.144531 -2.851562 L 6.070312 -2.851562 L 6.023438 -2.734375 C 5.699219 -1.859375 5.089844 -1.363281 4.28125 -1.363281 C 3.53125 -1.363281 2.90625 -1.871094 2.90625 -3.265625 C 2.90625 -5.445312 3.96875 -6.601562 5.191406 -6.601562 C 6.035156 -6.601562 6.484375 -6.195312 6.507812 -5.34375 L 6.507812 -5.226562 L 8.585938 -5.226562 L 8.597656 -5.34375 C 8.710938 -6.910156 7.648438 -8.121094 5.375 -8.121094 Z M 5.375 -8.121094 "/></g></g></g><g fill="#ffffff" fill-opacity="1"><g transform="translate(213.578773, 226.366137)"><g><path d="M 5.03125 -4.117188 L 9.242188 -7.960938 L 6.761719 -7.960938 L 3.105469 -4.441406 L 3.726562 -7.960938 L 1.648438 -7.960938 L 0.242188 0 L 2.320312 0 L 2.746094 -2.445312 L 3.414062 -3.070312 L 5.15625 0 L 7.730469 0 Z M 5.03125 -4.117188 "/></g></g></g><g fill="#ffffff" fill-opacity="1"><g transform="translate(221.466512, 226.366137)"><g><path d="M 4.382812 -8.121094 C 2.640625 -8.121094 1.015625 -7.117188 1.015625 -5.308594 C 1.015625 -4.109375 1.902344 -3.542969 3.4375 -3.148438 C 4.269531 -2.929688 4.59375 -2.574219 4.59375 -2.214844 C 4.59375 -1.707031 4.074219 -1.363281 3.4375 -1.363281 C 2.816406 -1.363281 2.25 -1.683594 2.25 -2.433594 L 0.171875 -2.433594 C -0.0117188 -0.644531 1.292969 0.160156 3.21875 0.160156 C 5.078125 0.160156 6.820312 -0.773438 6.820312 -2.628906 C 6.820312 -3.632812 6.195312 -4.394531 4.742188 -4.753906 C 3.613281 -5.03125 3.242188 -5.332031 3.242188 -5.757812 C 3.242188 -6.3125 3.644531 -6.601562 4.1875 -6.601562 C 4.867188 -6.601562 5.132812 -6.160156 5.113281 -5.503906 L 7.1875 -5.503906 C 7.269531 -6.980469 6.484375 -8.121094 4.382812 -8.121094 Z M 4.382812 -8.121094 "/></g></g></g><g fill="#ffffff" fill-opacity="1"><g transform="translate(228.339401, 226.366137)"><g><path d="M 7.972656 -6.347656 L 8.273438 -7.960938 L 1.027344 -7.960938 L 0.726562 -6.347656 L 3.324219 -6.347656 L 2.203125 0 L 4.28125 0 L 5.398438 -6.347656 Z M 7.972656 -6.347656 "/></g></g></g><g fill="#ffffff" fill-opacity="1"><g transform="translate(235.269962, 226.366137)"><g><path d="M 5.226562 -2.066406 L 5.527344 0 L 7.789062 0 L 6.390625 -7.960938 L 3.703125 -7.960938 L -0.496094 0 L 1.707031 0 L 2.722656 -2.066406 Z M 4.996094 -3.679688 L 3.507812 -3.679688 L 4.660156 -6.035156 Z M 4.996094 -3.679688 "/></g></g></g><g fill="#ffffff" fill-opacity="1"><g transform="translate(243.065434, 226.366137)"><g><path d="M 7.878906 -6.160156 C 7.878906 -7.292969 7.050781 -7.789062 6.046875 -7.902344 C 5.628906 -7.949219 5.308594 -7.960938 4.8125 -7.960938 L 1.648438 -7.960938 L 0.242188 0 L 2.320312 0 L 2.851562 -3.023438 L 3.324219 -3.023438 C 3.554688 -3.023438 3.738281 -3.023438 3.96875 -3.011719 C 4.453125 -2.976562 4.707031 -2.527344 4.707031 -1.765625 C 4.707031 -0.855469 4.730469 -0.425781 4.789062 0 L 7.050781 0 C 6.875 -0.378906 6.785156 -0.875 6.785156 -1.535156 C 6.785156 -2.792969 6.554688 -3.472656 5.839844 -3.785156 C 7.175781 -4.128906 7.878906 -4.949219 7.878906 -6.160156 Z M 3.117188 -4.523438 L 3.4375 -6.347656 L 4.246094 -6.347656 C 4.464844 -6.347656 4.648438 -6.347656 4.800781 -6.335938 C 5.261719 -6.300781 5.617188 -6.136719 5.617188 -5.617188 C 5.617188 -4.8125 5.042969 -4.582031 4.429688 -4.535156 C 4.28125 -4.523438 4.097656 -4.523438 3.875 -4.523438 Z M 3.117188 -4.523438 "/></g></g></g><g fill="#ffffff" fill-opacity="1"><g transform="translate(250.399612, 226.366137)"><g><path d="M 7.972656 -6.347656 L 8.273438 -7.960938 L 1.027344 -7.960938 L 0.726562 -6.347656 L 3.324219 -6.347656 L 2.203125 0 L 4.28125 0 L 5.398438 -6.347656 Z M 7.972656 -6.347656 "/></g></g></g><g fill="#ffffff" fill-opacity="1"><g transform="translate(257.330173, 226.366137)"><g/></g></g><g fill="#ffffff" fill-opacity="1"><g transform="translate(258.448473, 226.366137)"><g><path d="M 3.160156 -2.710938 L 3.347656 -3.820312 L 0.460938 -3.820312 L 0.277344 -2.710938 Z M 3.160156 -2.710938 "/></g></g></g><g fill="#ffffff" fill-opacity="1"><g transform="translate(261.711776, 226.366137)"><g><path d="M 5.144531 -2.988281 L 8.828125 -7.960938 L 6.53125 -7.960938 L 4.453125 -4.777344 L 3.359375 -7.960938 L 1.140625 -7.960938 L 3.082031 -3.058594 L 2.539062 0 L 4.613281 0 Z M 5.144531 -2.988281 "/></g></g></g><g fill="#ffffff" fill-opacity="1"><g transform="translate(269.230476, 226.366137)"><g><path d="M 5.386719 -8.121094 C 2.804688 -8.121094 0.75 -6.289062 0.75 -3.289062 C 0.75 -1.316406 2.121094 0.160156 4.558594 0.160156 C 7.140625 0.160156 9.195312 -1.671875 9.195312 -4.671875 C 9.195312 -6.644531 7.824219 -8.121094 5.386719 -8.121094 Z M 4.625 -1.363281 C 3.519531 -1.363281 2.941406 -2.179688 2.941406 -3.347656 C 2.941406 -4.835938 3.714844 -6.601562 5.320312 -6.601562 C 6.425781 -6.601562 7.003906 -5.78125 7.003906 -4.613281 C 7.003906 -3.125 6.230469 -1.363281 4.625 -1.363281 Z M 4.625 -1.363281 "/></g></g></g><g fill="#ffffff" fill-opacity="1"><g transform="translate(278.19071, 226.366137)"><g><path d="M 8.710938 -7.960938 L 6.632812 -7.960938 L 5.78125 -3.117188 C 5.746094 -2.894531 5.722656 -2.78125 5.6875 -2.640625 C 5.445312 -1.660156 4.925781 -1.363281 4.109375 -1.363281 C 3.390625 -1.363281 2.804688 -1.730469 2.804688 -2.445312 C 2.804688 -2.664062 2.828125 -2.863281 2.871094 -3.117188 L 3.726562 -7.960938 L 1.648438 -7.960938 L 0.921875 -3.84375 C 0.773438 -2.964844 0.726562 -2.597656 0.726562 -2.167969 C 0.726562 -0.855469 1.753906 0.160156 3.957031 0.160156 C 6.390625 0.160156 7.339844 -0.933594 7.71875 -2.492188 C 7.835938 -2.964844 7.878906 -3.207031 7.972656 -3.726562 Z M 8.710938 -7.960938 "/></g></g></g><g fill="#ffffff" fill-opacity="1"><g transform="translate(286.124576, 226.366137)"><g><path d="M 7.878906 -6.160156 C 7.878906 -7.292969 7.050781 -7.789062 6.046875 -7.902344 C 5.628906 -7.949219 5.308594 -7.960938 4.8125 -7.960938 L 1.648438 -7.960938 L 0.242188 0 L 2.320312 0 L 2.851562 -3.023438 L 3.324219 -3.023438 C 3.554688 -3.023438 3.738281 -3.023438 3.96875 -3.011719 C 4.453125 -2.976562 4.707031 -2.527344 4.707031 -1.765625 C 4.707031 -0.855469 4.730469 -0.425781 4.789062 0 L 7.050781 0 C 6.875 -0.378906 6.785156 -0.875 6.785156 -1.535156 C 6.785156 -2.792969 6.554688 -3.472656 5.839844 -3.785156 C 7.175781 -4.128906 7.878906 -4.949219 7.878906 -6.160156 Z M 3.117188 -4.523438 L 3.4375 -6.347656 L 4.246094 -6.347656 C 4.464844 -6.347656 4.648438 -6.347656 4.800781 -6.335938 C 5.261719 -6.300781 5.617188 -6.136719 5.617188 -5.617188 C 5.617188 -4.8125 5.042969 -4.582031 4.429688 -4.535156 C 4.28125 -4.523438 4.097656 -4.523438 3.875 -4.523438 Z M 3.117188 -4.523438 "/></g></g></g><g fill="#ffffff" fill-opacity="1"><g transform="translate(293.458757, 226.366137)"><g><path d="M 3.160156 -2.710938 L 3.347656 -3.820312 L 0.460938 -3.820312 L 0.277344 -2.710938 Z M 3.160156 -2.710938 "/></g></g></g><g fill="#ffffff" fill-opacity="1"><g transform="translate(296.72206, 226.366137)"><g><path d="M 5.652344 -7.914062 C 5.261719 -7.960938 4.960938 -7.960938 4.546875 -7.960938 L 1.648438 -7.960938 L 0.242188 0 L 3.242188 0 C 3.667969 0 3.855469 0 4.269531 -0.0351562 C 7.0625 -0.300781 8.421875 -2.261719 8.421875 -4.582031 C 8.421875 -6.703125 7.234375 -7.730469 5.652344 -7.914062 Z M 4.0625 -1.636719 C 3.796875 -1.617188 3.613281 -1.617188 3.3125 -1.617188 L 2.609375 -1.617188 L 3.4375 -6.347656 L 4.128906 -6.347656 C 4.429688 -6.347656 4.613281 -6.347656 4.878906 -6.324219 C 5.734375 -6.242188 6.230469 -5.722656 6.230469 -4.523438 C 6.230469 -3.046875 5.550781 -1.777344 4.0625 -1.636719 Z M 4.0625 -1.636719 "/></g></g></g><g fill="#ffffff" fill-opacity="1"><g transform="translate(304.921159, 226.366137)"><g><path d="M 7.878906 -6.160156 C 7.878906 -7.292969 7.050781 -7.789062 6.046875 -7.902344 C 5.628906 -7.949219 5.308594 -7.960938 4.8125 -7.960938 L 1.648438 -7.960938 L 0.242188 0 L 2.320312 0 L 2.851562 -3.023438 L 3.324219 -3.023438 C 3.554688 -3.023438 3.738281 -3.023438 3.96875 -3.011719 C 4.453125 -2.976562 4.707031 -2.527344 4.707031 -1.765625 C 4.707031 -0.855469 4.730469 -0.425781 4.789062 0 L 7.050781 0 C 6.875 -0.378906 6.785156 -0.875 6.785156 -1.535156 C 6.785156 -2.792969 6.554688 -3.472656 5.839844 -3.785156 C 7.175781 -4.128906 7.878906 -4.949219 7.878906 -6.160156 Z M 3.117188 -4.523438 L 3.4375 -6.347656 L 4.246094 -6.347656 C 4.464844 -6.347656 4.648438 -6.347656 4.800781 -6.335938 C 5.261719 -6.300781 5.617188 -6.136719 5.617188 -5.617188 C 5.617188 -4.8125 5.042969 -4.582031 4.429688 -4.535156 C 4.28125 -4.523438 4.097656 -4.523438 3.875 -4.523438 Z M 3.117188 -4.523438 "/></g></g></g><g fill="#ffffff" fill-opacity="1"><g transform="translate(312.25534, 226.366137)"><g><path d="M 3.4375 -6.347656 L 7.351562 -6.347656 L 7.636719 -7.960938 L 1.648438 -7.960938 L 0.242188 0 L 6.347656 0 L 6.632812 -1.617188 L 2.609375 -1.617188 L 2.882812 -3.183594 L 6.566406 -3.183594 L 6.855469 -4.800781 L 3.171875 -4.800781 Z M 3.4375 -6.347656 "/></g></g></g><g fill="#ffffff" fill-opacity="1"><g transform="translate(319.139761, 226.366137)"><g><path d="M 5.226562 -2.066406 L 5.527344 0 L 7.789062 0 L 6.390625 -7.960938 L 3.703125 -7.960938 L -0.496094 0 L 1.707031 0 L 2.722656 -2.066406 Z M 4.996094 -3.679688 L 3.507812 -3.679688 L 4.660156 -6.035156 Z M 4.996094 -3.679688 "/></g></g></g><g fill="#ffffff" fill-opacity="1"><g transform="translate(326.935234, 226.366137)"><g><path d="M 10.753906 -7.960938 L 7.292969 -7.960938 L 5.214844 -2.238281 L 5.03125 -7.960938 L 1.648438 -7.960938 L 0.242188 0 L 2.320312 0 L 3.335938 -5.839844 L 3.589844 0 L 6 0 L 8.320312 -5.839844 L 7.269531 0 L 9.347656 0 Z M 10.753906 -7.960938 "/></g></g></g><g fill="#ffffff" fill-opacity="1"><g transform="translate(337.140531, 226.366137)"><g/></g></g><g fill="#ffffff" fill-opacity="1"><g transform="translate(338.258831, 226.366137)"><g/></g></g></svg>