<svg xmlns="http://www.w3.org/2000/svg" xmlns:xlink="http://www.w3.org/1999/xlink" width="500" zoomAndPan="magnify" viewBox="0 0 375 374.999991" height="500" preserveAspectRatio="xMidYMid meet" version="1.0"><defs><g/><clipPath id="f0c62de185"><path d="M 2.980469 144.453125 L 372.019531 144.453125 L 372.019531 236.484375 L 2.980469 236.484375 Z M 2.980469 144.453125 " clip-rule="nonzero"/></clipPath><clipPath id="71733a674f"><path d="M 3.003906 144.453125 L 371.992188 144.453125 L 371.992188 236.472656 L 3.003906 236.472656 Z M 3.003906 144.453125 " clip-rule="nonzero"/></clipPath></defs><g clip-path="url(#f0c62de185)"><path fill="#ff214a" d="M 2.980469 144.453125 L 372.195312 144.453125 L 372.195312 236.484375 L 2.980469 236.484375 Z M 2.980469 144.453125 " fill-opacity="1" fill-rule="nonzero"/></g><g clip-path="url(#71733a674f)"><path stroke-linecap="butt" transform="matrix(0.902592, 0, 0, 0.902592, 3.002473, 144.451807)" fill="none" stroke-linejoin="miter" d="M 0.00158791 0.00145989 L 408.810972 0.00145989 L 408.810972 101.951711 L 0.00158791 101.951711 Z M 0.00158791 0.00145989 " stroke="#ff214a" stroke-width="6.647518" stroke-opacity="1" stroke-miterlimit="4"/></g><g fill="#ffffff" fill-opacity="1"><g transform="translate(21.557729, 209.025547)"><g><path d="M 20.796875 -40.125 C 25.847656 -40.125 29.992188 -39.097656 33.234375 -37.046875 C 36.484375 -35.003906 38.148438 -31.976562 38.234375 -27.96875 L 38.234375 -27.28125 L 26.359375 -27.28125 L 26.359375 -27.515625 C 26.359375 -28.660156 25.9375 -29.613281 25.09375 -30.375 C 24.257812 -31.132812 22.984375 -31.515625 21.265625 -31.515625 C 19.578125 -31.515625 18.285156 -31.265625 17.390625 -30.765625 C 16.492188 -30.273438 16.046875 -29.664062 16.046875 -28.9375 C 16.046875 -27.90625 16.65625 -27.140625 17.875 -26.640625 C 19.101562 -26.148438 21.070312 -25.640625 23.78125 -25.109375 C 26.957031 -24.453125 29.566406 -23.769531 31.609375 -23.0625 C 33.648438 -22.363281 35.4375 -21.207031 36.96875 -19.59375 C 38.5 -17.988281 39.28125 -15.8125 39.3125 -13.0625 C 39.3125 -8.40625 37.734375 -4.945312 34.578125 -2.6875 C 31.429688 -0.4375 27.222656 0.6875 21.953125 0.6875 C 15.796875 0.6875 11.007812 -0.34375 7.59375 -2.40625 C 4.175781 -4.46875 2.46875 -8.117188 2.46875 -13.359375 L 14.4375 -13.359375 C 14.4375 -11.367188 14.953125 -10.039062 15.984375 -9.375 C 17.015625 -8.707031 18.617188 -8.375 20.796875 -8.375 C 22.410156 -8.375 23.738281 -8.546875 24.78125 -8.890625 C 25.832031 -9.234375 26.359375 -9.9375 26.359375 -11 C 26.359375 -11.957031 25.773438 -12.675781 24.609375 -13.15625 C 23.453125 -13.632812 21.550781 -14.140625 18.90625 -14.671875 C 15.695312 -15.359375 13.039062 -16.070312 10.9375 -16.8125 C 8.84375 -17.5625 7.007812 -18.796875 5.4375 -20.515625 C 3.875 -22.234375 3.09375 -24.566406 3.09375 -27.515625 C 3.09375 -31.828125 4.765625 -35.003906 8.109375 -37.046875 C 11.453125 -39.097656 15.679688 -40.125 20.796875 -40.125 Z M 20.796875 -40.125 "/></g></g></g><g fill="#ffffff" fill-opacity="1"><g transform="translate(59.671883, 209.025547)"><g><path d="M 3.84375 -33.8125 L 3.84375 -41.546875 L 15.25 -41.546875 L 15.25 -33.8125 Z M 3.84375 0 L 3.84375 -30.265625 L 15.25 -30.265625 L 15.25 0 Z M 3.84375 0 "/></g></g></g><g fill="#ffffff" fill-opacity="1"><g transform="translate(75.490668, 209.025547)"><g><path d="M 24.296875 -30.953125 C 27.816406 -30.953125 30.453125 -29.976562 32.203125 -28.03125 C 33.960938 -26.082031 34.84375 -23.269531 34.84375 -19.59375 L 34.84375 0 L 23.4375 0 L 23.4375 -18.21875 C 23.4375 -19.519531 23.101562 -20.5625 22.4375 -21.34375 C 21.769531 -22.132812 20.820312 -22.53125 19.59375 -22.53125 C 18.1875 -22.53125 17.039062 -22.066406 16.15625 -21.140625 C 15.28125 -20.222656 14.84375 -19.097656 14.84375 -17.765625 L 14.84375 0 L 3.4375 0 L 3.4375 -30.265625 L 12.78125 -30.265625 L 13.53125 -25.671875 C 14.707031 -27.273438 16.257812 -28.554688 18.1875 -29.515625 C 20.125 -30.472656 22.160156 -30.953125 24.296875 -30.953125 Z M 24.296875 -30.953125 "/></g></g></g><g fill="#ffffff" fill-opacity="1"><g transform="translate(110.452513, 209.025547)"><g><path d="M 37.484375 -35.9375 C 37.484375 -33.601562 36.898438 -31.804688 35.734375 -30.546875 C 34.566406 -29.285156 32.816406 -28.347656 30.484375 -27.734375 C 31.597656 -26.898438 32.46875 -25.914062 33.09375 -24.78125 C 33.726562 -23.65625 34.046875 -22.460938 34.046875 -21.203125 C 34.046875 -17.992188 32.832031 -15.566406 30.40625 -13.921875 C 27.976562 -12.285156 24.945312 -11.46875 21.3125 -11.46875 L 16.96875 -11.46875 C 14.5625 -11.46875 13.359375 -10.910156 13.359375 -9.796875 C 13.359375 -9.265625 13.625 -8.835938 14.15625 -8.515625 C 14.6875 -8.191406 15.625 -8.03125 16.96875 -8.03125 L 27.28125 -8.03125 C 30.644531 -8.03125 33.1875 -7.148438 34.90625 -5.390625 C 36.625 -3.628906 37.484375 -1.28125 37.484375 1.65625 C 37.484375 3.832031 36.910156 5.703125 35.765625 7.265625 C 34.617188 8.835938 33.070312 10.023438 31.125 10.828125 C 29.175781 11.628906 27.054688 12.03125 24.765625 12.03125 L 7.90625 12.03125 C 6.53125 12.03125 5.257812 11.707031 4.09375 11.0625 C 2.925781 10.414062 2 9.523438 1.3125 8.390625 C 0.625 7.265625 0.28125 6.015625 0.28125 4.640625 C 0.28125 3.148438 0.738281 1.800781 1.65625 0.59375 C 2.570312 -0.601562 3.71875 -1.507812 5.09375 -2.125 C 4.175781 -2.769531 3.453125 -3.550781 2.921875 -4.46875 C 2.390625 -5.382812 2.125 -6.378906 2.125 -7.453125 C 2.125 -8.941406 2.675781 -10.285156 3.78125 -11.484375 C 4.882812 -12.691406 6.257812 -13.503906 7.90625 -13.921875 C 6.414062 -14.878906 5.226562 -15.976562 4.34375 -17.21875 C 3.46875 -18.457031 3.03125 -19.765625 3.03125 -21.140625 C 3.03125 -24.660156 4.453125 -27.175781 7.296875 -28.6875 C 10.148438 -30.195312 13.925781 -30.953125 18.625 -30.953125 C 20.6875 -30.953125 22.347656 -30.835938 23.609375 -30.609375 C 25.484375 -31.785156 26.695312 -32.859375 27.25 -33.828125 C 27.800781 -34.804688 28.078125 -35.507812 28.078125 -35.9375 Z M 18.515625 -24.984375 C 17.253906 -24.984375 16.222656 -24.660156 15.421875 -24.015625 C 14.617188 -23.367188 14.21875 -22.429688 14.21875 -21.203125 C 14.21875 -19.941406 14.585938 -18.992188 15.328125 -18.359375 C 16.078125 -17.734375 17.140625 -17.421875 18.515625 -17.421875 C 19.890625 -17.421875 20.96875 -17.734375 21.75 -18.359375 C 22.53125 -18.992188 22.921875 -19.941406 22.921875 -21.203125 C 22.921875 -22.460938 22.53125 -23.40625 21.75 -24.03125 C 20.96875 -24.664062 19.890625 -24.984375 18.515625 -24.984375 Z M 14.09375 0 C 13.21875 0 12.503906 0.238281 11.953125 0.71875 C 11.398438 1.195312 11.125 1.875 11.125 2.75 C 11.125 3.625 11.410156 4.328125 11.984375 4.859375 C 12.554688 5.398438 13.257812 5.671875 14.09375 5.671875 L 23.046875 5.671875 C 23.878906 5.671875 24.59375 5.410156 25.1875 4.890625 C 25.78125 4.378906 26.078125 3.6875 26.078125 2.8125 C 26.078125 1.925781 25.789062 1.234375 25.21875 0.734375 C 24.644531 0.242188 23.921875 0 23.046875 0 Z M 14.09375 0 "/></g></g></g><g fill="#ffffff" fill-opacity="1"><g transform="translate(145.414352, 209.025547)"><g><path d="M 20.796875 -40.125 C 25.847656 -40.125 29.992188 -39.097656 33.234375 -37.046875 C 36.484375 -35.003906 38.148438 -31.976562 38.234375 -27.96875 L 38.234375 -27.28125 L 26.359375 -27.28125 L 26.359375 -27.515625 C 26.359375 -28.660156 25.9375 -29.613281 25.09375 -30.375 C 24.257812 -31.132812 22.984375 -31.515625 21.265625 -31.515625 C 19.578125 -31.515625 18.285156 -31.265625 17.390625 -30.765625 C 16.492188 -30.273438 16.046875 -29.664062 16.046875 -28.9375 C 16.046875 -27.90625 16.65625 -27.140625 17.875 -26.640625 C 19.101562 -26.148438 21.070312 -25.640625 23.78125 -25.109375 C 26.957031 -24.453125 29.566406 -23.769531 31.609375 -23.0625 C 33.648438 -22.363281 35.4375 -21.207031 36.96875 -19.59375 C 38.5 -17.988281 39.28125 -15.8125 39.3125 -13.0625 C 39.3125 -8.40625 37.734375 -4.945312 34.578125 -2.6875 C 31.429688 -0.4375 27.222656 0.6875 21.953125 0.6875 C 15.796875 0.6875 11.007812 -0.34375 7.59375 -2.40625 C 4.175781 -4.46875 2.46875 -8.117188 2.46875 -13.359375 L 14.4375 -13.359375 C 14.4375 -11.367188 14.953125 -10.039062 15.984375 -9.375 C 17.015625 -8.707031 18.617188 -8.375 20.796875 -8.375 C 22.410156 -8.375 23.738281 -8.546875 24.78125 -8.890625 C 25.832031 -9.234375 26.359375 -9.9375 26.359375 -11 C 26.359375 -11.957031 25.773438 -12.675781 24.609375 -13.15625 C 23.453125 -13.632812 21.550781 -14.140625 18.90625 -14.671875 C 15.695312 -15.359375 13.039062 -16.070312 10.9375 -16.8125 C 8.84375 -17.5625 7.007812 -18.796875 5.4375 -20.515625 C 3.875 -22.234375 3.09375 -24.566406 3.09375 -27.515625 C 3.09375 -31.828125 4.765625 -35.003906 8.109375 -37.046875 C 11.453125 -39.097656 15.679688 -40.125 20.796875 -40.125 Z M 20.796875 -40.125 "/></g></g></g><g fill="#ffffff" fill-opacity="1"><g transform="translate(183.528501, 209.025547)"><g><path d="M 23.609375 -30.265625 L 23.609375 -22.53125 L 17.1875 -22.53125 L 17.1875 -11 C 17.1875 -9.625 17.414062 -8.617188 17.875 -7.984375 C 18.332031 -7.359375 19.175781 -7.046875 20.40625 -7.046875 L 23.609375 -7.046875 L 23.609375 -0.34375 C 22.691406 -0.0390625 21.503906 0.203125 20.046875 0.390625 C 18.597656 0.585938 17.34375 0.6875 16.28125 0.6875 C 12.914062 0.6875 10.320312 0.078125 8.5 -1.140625 C 6.6875 -2.367188 5.78125 -4.453125 5.78125 -7.390625 L 5.78125 -22.53125 L 1.546875 -22.53125 L 1.546875 -30.265625 L 6.25 -30.265625 L 8.71875 -39.4375 L 17.1875 -39.4375 L 17.1875 -30.265625 Z M 23.609375 -30.265625 "/></g></g></g><g fill="#ffffff" fill-opacity="1"><g transform="translate(205.709199, 209.025547)"><g><path d="M 18.390625 -30.953125 C 23.015625 -30.953125 26.78125 -30.175781 29.6875 -28.625 C 32.59375 -27.082031 34.046875 -24.570312 34.046875 -21.09375 L 34.046875 -9.28125 C 34.046875 -8.632812 34.195312 -8.097656 34.5 -7.671875 C 34.800781 -7.253906 35.257812 -7.046875 35.875 -7.046875 L 37.9375 -7.046875 L 37.9375 -0.453125 C 37.820312 -0.378906 37.523438 -0.253906 37.046875 -0.078125 C 36.578125 0.0859375 35.898438 0.253906 35.015625 0.421875 C 34.140625 0.597656 33.128906 0.6875 31.984375 0.6875 C 29.765625 0.6875 27.9375 0.351562 26.5 -0.3125 C 25.070312 -0.976562 24.09375 -1.90625 23.5625 -3.09375 C 22.101562 -1.945312 20.472656 -1.03125 18.671875 -0.34375 C 16.878906 0.34375 14.78125 0.6875 12.375 0.6875 C 5.269531 0.6875 1.71875 -2.140625 1.71875 -7.796875 C 1.71875 -10.734375 2.507812 -12.972656 4.09375 -14.515625 C 5.675781 -16.066406 7.957031 -17.128906 10.9375 -17.703125 C 13.925781 -18.273438 17.828125 -18.5625 22.640625 -18.5625 L 22.640625 -20.0625 C 22.640625 -21.25 22.226562 -22.144531 21.40625 -22.75 C 20.582031 -23.363281 19.519531 -23.671875 18.21875 -23.671875 C 17.039062 -23.671875 16.019531 -23.457031 15.15625 -23.03125 C 14.300781 -22.613281 13.875 -21.945312 13.875 -21.03125 L 13.875 -20.796875 L 2.640625 -20.796875 C 2.597656 -20.992188 2.578125 -21.265625 2.578125 -21.609375 C 2.578125 -24.472656 3.941406 -26.742188 6.671875 -28.421875 C 9.410156 -30.109375 13.316406 -30.953125 18.390625 -30.953125 Z M 22.640625 -13.1875 C 19.390625 -13.1875 16.988281 -12.832031 15.4375 -12.125 C 13.894531 -11.414062 13.125 -10.46875 13.125 -9.28125 C 13.125 -7.375 14.421875 -6.421875 17.015625 -6.421875 C 18.503906 -6.421875 19.8125 -6.820312 20.9375 -7.625 C 22.070312 -8.425781 22.640625 -9.421875 22.640625 -10.609375 Z M 22.640625 -13.1875 "/></g></g></g><g fill="#ffffff" fill-opacity="1"><g transform="translate(240.671037, 209.025547)"><g><path d="M 21.84375 -31 C 22.71875 -31 23.5 -30.894531 24.1875 -30.6875 C 24.875 -30.476562 25.21875 -30.351562 25.21875 -30.3125 L 25.21875 -20.75 L 21.546875 -20.75 C 19.179688 -20.75 17.472656 -20.132812 16.421875 -18.90625 C 15.367188 -17.6875 14.84375 -15.875 14.84375 -13.46875 L 14.84375 0 L 3.4375 0 L 3.4375 -30.265625 L 12.78125 -30.265625 L 13.53125 -25.671875 C 14.21875 -27.429688 15.304688 -28.757812 16.796875 -29.65625 C 18.285156 -30.550781 19.96875 -31 21.84375 -31 Z M 21.84375 -31 "/></g></g></g><g fill="#ffffff" fill-opacity="1"><g transform="translate(262.851735, 209.025547)"><g><path d="M 23.609375 -30.265625 L 23.609375 -22.53125 L 17.1875 -22.53125 L 17.1875 -11 C 17.1875 -9.625 17.414062 -8.617188 17.875 -7.984375 C 18.332031 -7.359375 19.175781 -7.046875 20.40625 -7.046875 L 23.609375 -7.046875 L 23.609375 -0.34375 C 22.691406 -0.0390625 21.503906 0.203125 20.046875 0.390625 C 18.597656 0.585938 17.34375 0.6875 16.28125 0.6875 C 12.914062 0.6875 10.320312 0.078125 8.5 -1.140625 C 6.6875 -2.367188 5.78125 -4.453125 5.78125 -7.390625 L 5.78125 -22.53125 L 1.546875 -22.53125 L 1.546875 -30.265625 L 6.25 -30.265625 L 8.71875 -39.4375 L 17.1875 -39.4375 L 17.1875 -30.265625 Z M 23.609375 -30.265625 "/></g></g></g><g fill="#ffffff" fill-opacity="1"><g transform="translate(285.032433, 209.025547)"><g><path d="M 19.078125 -30.953125 C 24.617188 -30.953125 28.851562 -29.648438 31.78125 -27.046875 C 34.707031 -24.453125 36.171875 -20.476562 36.171875 -15.125 L 36.171875 -13.1875 L 13.46875 -13.1875 C 13.46875 -11.007812 13.953125 -9.363281 14.921875 -8.25 C 15.898438 -7.144531 17.441406 -6.59375 19.546875 -6.59375 C 21.453125 -6.59375 22.851562 -6.992188 23.75 -7.796875 C 24.65625 -8.597656 25.109375 -9.664062 25.109375 -11 L 36.171875 -11 C 36.171875 -7.332031 34.773438 -4.46875 31.984375 -2.40625 C 29.191406 -0.34375 25.117188 0.6875 19.765625 0.6875 C 14.148438 0.6875 9.796875 -0.617188 6.703125 -3.234375 C 3.609375 -5.847656 2.0625 -9.8125 2.0625 -15.125 C 2.0625 -20.320312 3.570312 -24.257812 6.59375 -26.9375 C 9.613281 -29.613281 13.773438 -30.953125 19.078125 -30.953125 Z M 19.546875 -23.671875 C 15.953125 -23.671875 13.945312 -21.96875 13.53125 -18.5625 L 24.640625 -18.5625 C 24.640625 -20.132812 24.191406 -21.378906 23.296875 -22.296875 C 22.398438 -23.210938 21.148438 -23.671875 19.546875 -23.671875 Z M 19.546875 -23.671875 "/></g></g></g><g fill="#ffffff" fill-opacity="1"><g transform="translate(319.994284, 209.025547)"><g><path d="M 21.84375 -31 C 22.71875 -31 23.5 -30.894531 24.1875 -30.6875 C 24.875 -30.476562 25.21875 -30.351562 25.21875 -30.3125 L 25.21875 -20.75 L 21.546875 -20.75 C 19.179688 -20.75 17.472656 -20.132812 16.421875 -18.90625 C 15.367188 -17.6875 14.84375 -15.875 14.84375 -13.46875 L 14.84375 0 L 3.4375 0 L 3.4375 -30.265625 L 12.78125 -30.265625 L 13.53125 -25.671875 C 14.21875 -27.429688 15.304688 -28.757812 16.796875 -29.65625 C 18.285156 -30.550781 19.96875 -31 21.84375 -31 Z M 21.84375 -31 "/></g></g></g><g fill="#ffffff" fill-opacity="1"><g transform="translate(191.361806, 228.259778)"><g><path d="M 6.054688 -4.957031 L 11.121094 -9.582031 L 8.136719 -9.582031 L 3.734375 -5.347656 L 4.484375 -9.582031 L 1.984375 -9.582031 L 0.292969 0 L 2.789062 0 L 3.304688 -2.945312 L 4.109375 -3.695312 L 6.207031 0 L 9.304688 0 Z M 6.054688 -4.957031 "/></g></g></g><g fill="#ffffff" fill-opacity="1"><g transform="translate(200.854357, 228.259778)"><g><path d="M 2.789062 0 L 4.484375 -9.582031 L 1.984375 -9.582031 L 0.292969 0 Z M 2.789062 0 "/></g></g></g><g fill="#ffffff" fill-opacity="1"><g transform="translate(204.670562, 228.259778)"><g><path d="M 6.46875 -9.777344 C 3.484375 -9.777344 0.875 -7.5 0.875 -3.761719 C 0.875 -1.167969 2.5 0.195312 4.886719 0.195312 C 7.289062 0.195312 9.121094 -0.984375 9.761719 -3.289062 L 9.804688 -3.429688 L 7.304688 -3.429688 L 7.25 -3.289062 C 6.859375 -2.234375 6.125 -1.636719 5.152344 -1.636719 C 4.25 -1.636719 3.5 -2.25 3.5 -3.929688 C 3.5 -6.554688 4.777344 -7.941406 6.25 -7.941406 C 7.261719 -7.941406 7.804688 -7.457031 7.832031 -6.429688 L 7.832031 -6.289062 L 10.332031 -6.289062 L 10.34375 -6.429688 C 10.484375 -8.316406 9.207031 -9.777344 6.46875 -9.777344 Z M 6.46875 -9.777344 "/></g></g></g><g fill="#ffffff" fill-opacity="1"><g transform="translate(214.884792, 228.259778)"><g><path d="M 6.054688 -4.957031 L 11.121094 -9.582031 L 8.136719 -9.582031 L 3.734375 -5.347656 L 4.484375 -9.582031 L 1.984375 -9.582031 L 0.292969 0 L 2.789062 0 L 3.304688 -2.945312 L 4.109375 -3.695312 L 6.207031 0 L 9.304688 0 Z M 6.054688 -4.957031 "/></g></g></g><g fill="#ffffff" fill-opacity="1"><g transform="translate(224.377344, 228.259778)"><g><path d="M 5.277344 -9.777344 C 3.179688 -9.777344 1.222656 -8.566406 1.222656 -6.386719 C 1.222656 -4.941406 2.292969 -4.261719 4.136719 -3.789062 C 5.136719 -3.527344 5.527344 -3.097656 5.527344 -2.667969 C 5.527344 -2.054688 4.902344 -1.636719 4.136719 -1.636719 C 3.386719 -1.636719 2.707031 -2.027344 2.707031 -2.929688 L 0.207031 -2.929688 C -0.015625 -0.777344 1.554688 0.195312 3.875 0.195312 C 6.109375 0.195312 8.207031 -0.929688 8.207031 -3.164062 C 8.207031 -4.375 7.457031 -5.289062 5.707031 -5.722656 C 4.347656 -6.054688 3.902344 -6.414062 3.902344 -6.929688 C 3.902344 -7.59375 4.386719 -7.941406 5.039062 -7.941406 C 5.859375 -7.941406 6.179688 -7.414062 6.152344 -6.625 L 8.652344 -6.625 C 8.746094 -8.402344 7.804688 -9.777344 5.277344 -9.777344 Z M 5.277344 -9.777344 "/></g></g></g><g fill="#ffffff" fill-opacity="1"><g transform="translate(232.64857, 228.259778)"><g><path d="M 9.59375 -7.636719 L 9.957031 -9.582031 L 1.234375 -9.582031 L 0.875 -7.636719 L 4 -7.636719 L 2.652344 0 L 5.152344 0 L 6.5 -7.636719 Z M 9.59375 -7.636719 "/></g></g></g><g fill="#ffffff" fill-opacity="1"><g transform="translate(240.989199, 228.259778)"><g><path d="M 6.289062 -2.484375 L 6.652344 0 L 9.371094 0 L 7.691406 -9.582031 L 4.457031 -9.582031 L -0.597656 0 L 2.054688 0 L 3.277344 -2.484375 Z M 6.011719 -4.429688 L 4.222656 -4.429688 L 5.609375 -7.261719 Z M 6.011719 -4.429688 "/></g></g></g><g fill="#ffffff" fill-opacity="1"><g transform="translate(250.370714, 228.259778)"><g><path d="M 9.484375 -7.414062 C 9.484375 -8.777344 8.484375 -9.371094 7.277344 -9.511719 C 6.777344 -9.566406 6.386719 -9.582031 5.789062 -9.582031 L 1.984375 -9.582031 L 0.292969 0 L 2.789062 0 L 3.429688 -3.636719 L 4 -3.636719 C 4.277344 -3.636719 4.5 -3.636719 4.777344 -3.625 C 5.359375 -3.582031 5.664062 -3.039062 5.664062 -2.125 C 5.664062 -1.027344 5.691406 -0.515625 5.761719 0 L 8.484375 0 C 8.277344 -0.457031 8.164062 -1.054688 8.164062 -1.847656 C 8.164062 -3.359375 7.886719 -4.179688 7.027344 -4.554688 C 8.636719 -4.972656 9.484375 -5.957031 9.484375 -7.414062 Z M 3.75 -5.441406 L 4.136719 -7.636719 L 5.109375 -7.636719 C 5.375 -7.636719 5.597656 -7.636719 5.777344 -7.625 C 6.332031 -7.582031 6.761719 -7.386719 6.761719 -6.761719 C 6.761719 -5.789062 6.066406 -5.511719 5.332031 -5.457031 C 5.152344 -5.441406 4.929688 -5.441406 4.664062 -5.441406 Z M 3.75 -5.441406 "/></g></g></g><g fill="#ffffff" fill-opacity="1"><g transform="translate(259.19708, 228.259778)"><g><path d="M 9.59375 -7.636719 L 9.957031 -9.582031 L 1.234375 -9.582031 L 0.875 -7.636719 L 4 -7.636719 L 2.652344 0 L 5.152344 0 L 6.5 -7.636719 Z M 9.59375 -7.636719 "/></g></g></g><g fill="#ffffff" fill-opacity="1"><g transform="translate(267.53771, 228.259778)"><g/></g></g><g fill="#ffffff" fill-opacity="1"><g transform="translate(268.883536, 228.259778)"><g><path d="M 3.804688 -3.261719 L 4.027344 -4.597656 L 0.554688 -4.597656 L 0.332031 -3.261719 Z M 3.804688 -3.261719 "/></g></g></g><g fill="#ffffff" fill-opacity="1"><g transform="translate(272.81078, 228.259778)"><g><path d="M 6.191406 -3.597656 L 10.621094 -9.582031 L 7.859375 -9.582031 L 5.359375 -5.75 L 4.039062 -9.582031 L 1.375 -9.582031 L 3.707031 -3.679688 L 3.054688 0 L 5.554688 0 Z M 6.191406 -3.597656 "/></g></g></g><g fill="#ffffff" fill-opacity="1"><g transform="translate(281.859211, 228.259778)"><g><path d="M 6.484375 -9.777344 C 3.375 -9.777344 0.902344 -7.566406 0.902344 -3.957031 C 0.902344 -1.582031 2.554688 0.195312 5.484375 0.195312 C 8.59375 0.195312 11.066406 -2.011719 11.066406 -5.625 C 11.066406 -8 9.414062 -9.777344 6.484375 -9.777344 Z M 5.566406 -1.636719 C 4.234375 -1.636719 3.539062 -2.625 3.539062 -4.027344 C 3.539062 -5.816406 4.472656 -7.941406 6.402344 -7.941406 C 7.734375 -7.941406 8.429688 -6.957031 8.429688 -5.554688 C 8.429688 -3.761719 7.5 -1.636719 5.566406 -1.636719 Z M 5.566406 -1.636719 "/></g></g></g><g fill="#ffffff" fill-opacity="1"><g transform="translate(292.642465, 228.259778)"><g><path d="M 10.484375 -9.582031 L 7.984375 -9.582031 L 6.957031 -3.75 C 6.914062 -3.484375 6.886719 -3.347656 6.84375 -3.179688 C 6.554688 -2 5.929688 -1.636719 4.941406 -1.636719 C 4.082031 -1.636719 3.375 -2.082031 3.375 -2.945312 C 3.375 -3.207031 3.402344 -3.445312 3.457031 -3.75 L 4.484375 -9.582031 L 1.984375 -9.582031 L 1.109375 -4.625 C 0.929688 -3.570312 0.875 -3.125 0.875 -2.609375 C 0.875 -1.027344 2.109375 0.195312 4.761719 0.195312 C 7.691406 0.195312 8.832031 -1.125 9.289062 -3 C 9.429688 -3.570312 9.484375 -3.859375 9.59375 -4.484375 Z M 10.484375 -9.582031 "/></g></g></g><g fill="#ffffff" fill-opacity="1"><g transform="translate(302.190529, 228.259778)"><g><path d="M 9.484375 -7.414062 C 9.484375 -8.777344 8.484375 -9.371094 7.277344 -9.511719 C 6.777344 -9.566406 6.386719 -9.582031 5.789062 -9.582031 L 1.984375 -9.582031 L 0.292969 0 L 2.789062 0 L 3.429688 -3.636719 L 4 -3.636719 C 4.277344 -3.636719 4.5 -3.636719 4.777344 -3.625 C 5.359375 -3.582031 5.664062 -3.039062 5.664062 -2.125 C 5.664062 -1.027344 5.691406 -0.515625 5.761719 0 L 8.484375 0 C 8.277344 -0.457031 8.164062 -1.054688 8.164062 -1.847656 C 8.164062 -3.359375 7.886719 -4.179688 7.027344 -4.554688 C 8.636719 -4.972656 9.484375 -5.957031 9.484375 -7.414062 Z M 3.75 -5.441406 L 4.136719 -7.636719 L 5.109375 -7.636719 C 5.375 -7.636719 5.597656 -7.636719 5.777344 -7.625 C 6.332031 -7.582031 6.761719 -7.386719 6.761719 -6.761719 C 6.761719 -5.789062 6.066406 -5.511719 5.332031 -5.457031 C 5.152344 -5.441406 4.929688 -5.441406 4.664062 -5.441406 Z M 3.75 -5.441406 "/></g></g></g><g fill="#ffffff" fill-opacity="1"><g transform="translate(311.016899, 228.259778)"><g><path d="M 3.804688 -3.261719 L 4.027344 -4.597656 L 0.554688 -4.597656 L 0.332031 -3.261719 Z M 3.804688 -3.261719 "/></g></g></g><g fill="#ffffff" fill-opacity="1"><g transform="translate(314.944143, 228.259778)"><g><path d="M 6.804688 -9.527344 C 6.332031 -9.582031 5.972656 -9.582031 5.472656 -9.582031 L 1.984375 -9.582031 L 0.292969 0 L 3.902344 0 C 4.414062 0 4.636719 0 5.136719 -0.0429688 C 8.496094 -0.359375 10.136719 -2.722656 10.136719 -5.511719 C 10.136719 -8.066406 8.707031 -9.304688 6.804688 -9.527344 Z M 4.886719 -1.972656 C 4.566406 -1.945312 4.347656 -1.945312 3.984375 -1.945312 L 3.136719 -1.945312 L 4.136719 -7.636719 L 4.972656 -7.636719 C 5.332031 -7.636719 5.554688 -7.636719 5.875 -7.609375 C 6.902344 -7.511719 7.5 -6.886719 7.5 -5.441406 C 7.5 -3.664062 6.679688 -2.136719 4.886719 -1.972656 Z M 4.886719 -1.972656 "/></g></g></g><g fill="#ffffff" fill-opacity="1"><g transform="translate(324.811405, 228.259778)"><g><path d="M 9.484375 -7.414062 C 9.484375 -8.777344 8.484375 -9.371094 7.277344 -9.511719 C 6.777344 -9.566406 6.386719 -9.582031 5.789062 -9.582031 L 1.984375 -9.582031 L 0.292969 0 L 2.789062 0 L 3.429688 -3.636719 L 4 -3.636719 C 4.277344 -3.636719 4.5 -3.636719 4.777344 -3.625 C 5.359375 -3.582031 5.664062 -3.039062 5.664062 -2.125 C 5.664062 -1.027344 5.691406 -0.515625 5.761719 0 L 8.484375 0 C 8.277344 -0.457031 8.164062 -1.054688 8.164062 -1.847656 C 8.164062 -3.359375 7.886719 -4.179688 7.027344 -4.554688 C 8.636719 -4.972656 9.484375 -5.957031 9.484375 -7.414062 Z M 3.75 -5.441406 L 4.136719 -7.636719 L 5.109375 -7.636719 C 5.375 -7.636719 5.597656 -7.636719 5.777344 -7.625 C 6.332031 -7.582031 6.761719 -7.386719 6.761719 -6.761719 C 6.761719 -5.789062 6.066406 -5.511719 5.332031 -5.457031 C 5.152344 -5.441406 4.929688 -5.441406 4.664062 -5.441406 Z M 3.75 -5.441406 "/></g></g></g><g fill="#ffffff" fill-opacity="1"><g transform="translate(333.637775, 228.259778)"><g><path d="M 4.136719 -7.636719 L 8.84375 -7.636719 L 9.191406 -9.582031 L 1.984375 -9.582031 L 0.292969 0 L 7.636719 0 L 7.984375 -1.945312 L 3.136719 -1.945312 L 3.472656 -3.832031 L 7.902344 -3.832031 L 8.246094 -5.777344 L 3.820312 -5.777344 Z M 4.136719 -7.636719 "/></g></g></g><g fill="#ffffff" fill-opacity="1"><g transform="translate(341.922878, 228.259778)"><g><path d="M 6.289062 -2.484375 L 6.652344 0 L 9.371094 0 L 7.691406 -9.582031 L 4.457031 -9.582031 L -0.597656 0 L 2.054688 0 L 3.277344 -2.484375 Z M 6.011719 -4.429688 L 4.222656 -4.429688 L 5.609375 -7.261719 Z M 6.011719 -4.429688 "/></g></g></g><g fill="#ffffff" fill-opacity="1"><g transform="translate(351.304392, 228.259778)"><g><path d="M 12.941406 -9.582031 L 8.777344 -9.582031 L 6.277344 -2.695312 L 6.054688 -9.582031 L 1.984375 -9.582031 L 0.292969 0 L 2.789062 0 L 4.011719 -7.027344 L 4.320312 0 L 7.21875 0 L 10.011719 -7.027344 L 8.746094 0 L 11.246094 0 Z M 12.941406 -9.582031 "/></g></g></g><g fill="#ffffff" fill-opacity="1"><g transform="translate(363.586025, 228.259778)"><g/></g></g><g fill="#ffffff" fill-opacity="1"><g transform="translate(364.931851, 228.259778)"><g/></g></g></svg>